Coordinates
version=1
nRows=26
nColumns=30
inDegrees=yes

Units are S.I. units (second, meters, Newtons, ...)
Angles are in degrees.

endheader
time	floatyaw	floatroll	floatpitch	floatx	floaty	floatz	pro_sup_l	deviation_l	flexion_l	cmc_flexion_l	cmc_abduction_l	mp_flexion_l	ip_flexion_l	2mcp_flexion_l	2mcp_abduction_l	2pm_flexion_l	2md_flexion_l	3mcp_flexion_l	3mcp_abduction_l	3pm_flexion_l	3md_flexion_l	4mcp_flexion_l	4mcp_abduction_l	4pm_flexion_l	4md_flexion_l	5mcp_flexion_l	5mcp_abduction_l	5pm_flexion_l	5md_flexion_l
0.005000	-1.096539	-4.139632	93.798009	0.169640	-0.278393	0.180094	120.124781	27.563813	21.370622	-0.812293	38.607561	-18.685186	-32.004793	53.244619	11.183016	43.023402	47.833594	45.590677	6.078480	52.064117	56.130907	46.289225	-6.191122	72.875343	59.626055	26.183044	-10.959855	73.206438	56.934152
0.015000	-1.096539	-4.139632	93.798009	0.169231	-0.277633	0.179607	119.860549	27.267949	21.141453	0.009855	39.167174	-18.544226	-34.846339	53.030760	11.196866	43.874091	48.789249	45.358193	6.046305	52.874081	57.084804	45.963394	-6.251394	73.556075	60.486582	25.841484	-10.977047	73.616853	57.489614
0.025000	-1.096539	-4.139632	93.798009	0.168802	-0.276874	0.179065	119.561278	26.937199	20.932167	0.746351	39.667896	-18.321672	-37.632287	52.783110	11.218144	44.780337	49.684302	45.109628	6.020065	53.697519	58.025837	45.634606	-6.308269	74.272731	61.324014	25.479695	-10.999342	74.055416	58.049339
0.035000	-1.096539	-4.139632	93.798009	0.168360	-0.276125	0.178496	119.254751	26.589943	20.734640	1.390197	40.088836	-18.049835	-40.270293	52.511053	11.247126	45.716506	50.473020	44.846820	5.998816	54.515797	58.911868	45.302102	-6.360699	75.020089	62.119110	25.096495	-11.021900	74.521427	58.602365
0.045000	-1.096539	-4.139632	93.798009	0.167912	-0.275410	0.177926	118.969259	26.244646	20.543528	1.936345	40.414679	-17.759284	-42.666175	52.221371	11.284670	46.643861	51.115402	44.574604	5.982584	55.293348	59.698204	44.969710	-6.407124	75.773092	62.849954	24.699652	-11.040475	74.997315	59.133612
0.055000	-1.096539	-4.139632	93.798009	0.167467	-0.274764	0.177373	118.721493	25.914902	20.362063	2.378810	40.639546	-17.475043	-44.729028	51.921640	11.330091	47.511407	51.584124	44.303606	5.971919	55.981764	60.347970	44.647374	-6.445822	76.488742	63.494875	24.306912	-11.052427	75.447881	59.624570
0.065000	-1.096539	-4.139632	93.798009	0.167039	-0.274225	0.176846	118.510541	25.607442	20.202981	2.712039	40.771078	-17.215233	-46.385694	51.624696	11.379889	48.262455	51.872976	44.050690	5.967307	56.533526	60.843472	44.350783	-6.475591	77.116251	64.037548	23.943933	-11.057458	75.828373	60.056518
0.075000	-1.096539	-4.139632	93.798009	0.166645	-0.273817	0.176351	118.321758	25.323701	20.083013	2.935233	40.830842	-16.990532	-47.600945	51.350712	11.428117	48.847324	52.001321	43.836353	5.968621	56.919067	61.192524	44.098736	-6.496370	77.611957	64.472070	23.639061	-11.057375	76.098776	60.415394
0.085000	-1.096539	-4.139632	93.798009	0.166303	-0.273546	0.175897	118.138323	25.063376	20.013608	3.056952	40.849054	-16.804279	-48.393220	51.123827	11.468387	49.239075	52.009819	43.679095	5.974786	57.138751	61.425194	43.907899	-6.509450	77.953672	64.805313	23.415234	-11.054784	76.238748	60.696201
0.095000	-1.096539	-4.139632	93.798009	0.166027	-0.273394	0.175498	117.953241	24.827542	19.993450	3.097177	40.855551	-16.654076	-48.835161	50.963839	11.496452	49.445215	51.948029	43.588474	5.983828	57.224212	61.581667	43.786198	-6.517175	78.148995	65.054928	23.281198	-11.051530	76.256707	60.904526
0.105000	-1.096539	-4.139632	93.798009	0.165820	-0.273328	0.175174	117.774335	24.619667	20.007480	3.085038	40.871512	-16.534798	-49.035476	50.877815	11.511816	49.507680	51.860122	43.560289	5.993340	57.228572	61.697560	43.728038	-6.522214	78.233518	65.243525	23.226275	-11.047995	76.188422	61.054140
0.115000	-1.096539	-4.139632	93.798009	0.165675	-0.273314	0.174943	117.619943	24.444495	20.032897	3.052401	40.905647	-16.441358	-49.109012	50.857184	11.517460	49.488649	51.775920	43.577099	6.001209	57.209406	61.794612	43.714593	-6.526710	78.258428	65.391755	23.222419	-11.043562	76.084871	61.161731
0.125000	-1.096539	-4.139632	93.798009	0.165578	-0.273322	0.174811	117.509021	24.305833	20.048299	3.025709	40.955607	-16.369588	-49.147906	50.882270	11.518019	49.448135	51.710039	43.614661	6.006258	57.210768	61.880824	43.719863	-6.531738	78.272121	65.513836	23.233764	-11.037587	75.993961	61.241540
0.135000	-1.096539	-4.139632	93.798009	0.165511	-0.273336	0.174769	117.451740	24.204382	20.040932	3.019684	41.012947	-16.315277	-49.205153	50.931181	11.517671	49.424670	51.666571	43.651389	6.008469	57.251091	61.957728	43.719866	-6.537354	78.304080	65.617543	23.229524	-11.029905	75.943695	61.302643
0.145000	-1.096539	-4.139632	93.798009	0.165462	-0.273350	0.174797	117.444748	24.136417	20.009098	3.035701	41.068941	-16.273053	-49.294829	50.987559	11.518792	49.428573	51.644405	43.675847	6.008692	57.322067	62.028063	43.700519	-6.543102	78.358491	65.707233	23.194099	-11.020587	75.934272	61.349763
0.155000	-1.096539	-4.139632	93.798009	0.165421	-0.273363	0.174863	117.472184	24.093874	19.959936	3.065112	41.118668	-16.236623	-49.405104	51.043121	11.521699	49.449597	51.639790	43.688316	6.008019	57.398924	62.097766	43.660568	-6.548536	78.419834	65.786375	23.129842	-11.009471	75.942787	61.385777
0.165000	-1.096539	-4.139632	93.798009	0.165384	-0.273376	0.174936	117.511310	24.065988	19.904803	3.095392	41.161835	-16.200381	-49.515548	51.095077	11.525196	49.472092	51.646209	43.696246	6.007232	57.456544	62.171776	43.608740	-6.553482	78.466152	65.857453	23.052164	-10.996103	75.937692	61.413233
0.175000	-1.096539	-4.139632	93.798009	0.165350	-0.273392	0.174992	117.540303	24.042001	19.854768	3.116140	41.200648	-16.161388	-49.610238	51.141861	11.527486	49.487420	51.654201	43.707212	6.006607	57.482504	62.248743	43.557278	-6.558036	78.482189	65.920440	22.980290	-10.980232	75.895203	61.433921
0.185000	-1.096539	-4.139632	93.798009	0.165317	-0.273409	0.175015	117.545084	24.013796	19.817767	3.122711	41.236701	-16.120632	-49.682374	51.180691	11.527139	49.497396	51.653368	43.723844	6.006124	57.480735	62.320224	43.515341	-6.562479	78.466287	65.972389	22.928146	-10.962480	75.810000	61.447788
0.195000	-1.096539	-4.139632	93.798009	0.165287	-0.273425	0.175005	117.522521	23.977408	19.797640	3.116747	41.269196	-16.082748	-49.731881	51.208008	11.523864	49.509906	51.636272	43.743089	6.005796	57.465918	62.375475	43.485295	-6.567170	78.429476	66.009252	22.899013	-10.944565	75.696643	61.452987
0.205000	-1.096539	-4.139632	93.798009	0.165261	-0.273435	0.174972	117.479129	23.932994	19.794379	3.104114	41.295633	-16.053810	-49.761160	51.221601	11.518815	49.531975	51.601835	43.759142	6.005839	57.453839	62.408260	43.463306	-6.572366	78.389000	66.028888	22.885915	-10.928771	75.582322	61.447457
0.215000	-1.096539	-4.139632	93.798009	0.165241	-0.273436	0.174934	117.426564	23.883636	19.804885	3.091561	41.314150	-16.038004	-49.772842	51.222542	11.514180	49.564868	51.555742	43.767512	6.006580	57.453905	62.420581	43.443303	-6.578017	78.360300	66.032992	22.877130	-10.916901	75.494574	61.430782
0.225000	-1.096539	-4.139632	93.798009	0.165226	-0.273425	0.174901	117.376268	23.833633	19.823945	3.083677	41.325532	-16.035151	-49.769691	51.215650	11.512149	49.603194	51.507087	43.767552	6.008219	57.467459	62.420392	43.421443	-6.583670	78.351412	66.026148	22.863349	-10.909395	75.449642	61.404670
0.235000	-1.096539	-4.139632	93.798009	0.165217	-0.273402	0.174882	117.335537	23.786964	19.845448	3.081336	41.333379	-16.040551	-49.755048	51.208144	11.513816	49.637715	51.463098	43.762302	6.010669	57.491189	62.415009	43.398291	-6.588608	78.362048	66.012463	22.842183	-10.905274	75.447090	61.371600
0.245000	-1.096539	-4.139632	93.798009	0.165211	-0.273372	0.174874	117.306189	23.746316	19.863664	3.082011	41.342448	-16.046791	-49.733192	51.207214	11.518699	49.659876	51.425343	43.756500	6.013600	57.521565	62.405727	43.377871	-6.592153	78.386541	65.992702	22.817892	-10.902939	75.472869	61.332891
0.255000	-1.096539	-4.139632	93.798009	0.165205	-0.273340	0.174872	117.285713	23.712755	19.874219	3.081458	41.356454	-16.046180	-49.709585	51.217743	11.525070	49.665260	51.389933	43.754564	6.016613	57.556276	62.388373	43.364864	-6.593971	78.417740	65.964874	22.797520	-10.901180	75.508046	61.288128
